<svg id="svg" version="1.1" xmlns="http://www.w3.org/2000/svg" xmlns:xlink="http://www.w3.org/1999/xlink" width="400" height="297.75401069518716" viewBox="0, 0, 400,297.75401069518716"><g id="svgg"><path id="path0" d="M106.180 24.149 C 101.489 24.627,98.575 25.690,97.973 27.143 C 96.833 29.895,101.778 36.459,109.160 41.994 C 123.450 52.707,130.752 59.875,130.752 63.190 C 130.752 64.185,128.780 63.606,121.668 60.521 C 102.655 52.273,90.801 55.544,99.751 66.567 C 105.904 74.146,108.578 77.679,111.586 82.204 C 115.535 88.146,119.695 95.753,118.476 94.802 C 110.103 88.279,106.039 86.374,100.500 86.374 C 94.369 86.374,94.904 89.813,102.309 97.990 C 109.905 106.379,111.621 114.534,109.862 133.879 C 108.594 147.821,108.789 153.464,110.954 165.450 C 114.748 186.449,110.288 191.542,90.083 189.285 C 85.336 188.754,80.932 187.817,75.205 186.117 C 72.149 185.210,71.802 185.095,64.929 182.720 C 59.856 180.967,43.204 174.357,38.868 172.375 C 31.652 169.077,25.965 167.489,24.592 168.388 C 20.729 170.920,20.322 196.204,24.044 202.496 C 25.569 205.074,30.258 208.488,32.274 208.488 C 32.523 208.488,32.801 208.607,32.890 208.752 C 32.984 208.904,31.181 208.950,28.661 208.861 L 24.268 208.705 23.303 209.517 C 22.062 210.561,22.069 211.207,23.360 214.927 C 23.922 216.546,24.934 219.613,25.608 221.742 C 30.364 236.766,34.813 242.976,42.591 245.444 C 43.492 245.729,44.028 246.027,43.783 246.105 C 43.537 246.183,42.742 246.408,42.017 246.606 C 32.938 249.082,42.953 268.048,56.083 273.243 C 59.895 274.751,66.680 274.967,69.525 273.671 C 70.475 273.238,70.744 273.464,70.290 274.313 C 69.548 275.698,70.383 276.629,73.818 278.245 C 82.092 282.138,85.042 282.344,90.395 279.403 C 91.214 278.953,93.425 277.742,95.309 276.712 C 105.570 271.101,115.276 264.897,129.114 255.105 C 141.640 246.240,146.870 242.003,154.037 234.910 C 157.832 231.155,159.086 230.102,160.728 229.294 L 162.749 228.299 169.759 228.106 C 178.812 227.858,186.274 226.437,192.703 223.739 C 193.112 223.567,194.721 222.925,196.277 222.313 C 197.833 221.701,201.452 220.074,204.319 218.698 L 209.531 216.196 211.467 216.990 C 228.527 223.982,249.496 223.176,267.759 214.828 C 268.660 214.416,270.536 213.573,271.929 212.954 C 273.321 212.336,275.733 211.229,277.290 210.493 C 284.564 207.057,288.627 205.417,294.415 203.581 C 308.229 199.199,313.728 196.913,317.736 193.885 C 320.960 191.449,319.671 189.038,314.091 187.069 C 312.831 186.624,311.781 186.135,311.758 185.982 C 311.616 185.057,319.197 180.509,323.604 178.876 C 324.751 178.451,325.957 177.983,326.284 177.837 C 326.612 177.690,328.757 176.904,331.050 176.089 C 333.343 175.274,336.627 174.106,338.347 173.494 C 352.318 168.517,353.874 160.340,341.465 157.116 C 339.886 156.706,338.465 156.290,338.307 156.193 C 337.534 155.715,340.297 153.993,345.644 151.621 C 350.756 149.353,353.195 148.571,357.260 147.900 C 372.758 145.339,378.215 137.064,366.401 134.040 C 352.296 130.429,342.950 129.438,322.859 129.423 C 296.961 129.404,280.533 133.503,267.787 143.166 C 267.065 143.713,266.423 144.109,266.360 144.046 C 266.202 143.889,270.511 126.985,271.792 122.734 C 275.259 111.229,282.585 103.386,299.777 92.778 C 303.758 90.321,304.434 89.045,302.681 87.300 C 301.772 86.396,291.499 85.280,286.327 85.523 L 284.055 85.629 283.642 84.441 C 281.438 78.109,266.419 74.926,253.611 78.077 C 239.714 81.496,221.267 92.772,204.045 108.376 C 200.854 111.266,201.245 110.904,198.732 113.303 C 196.182 115.737,196.078 115.719,197.005 113.015 C 203.833 93.098,199.199 77.613,180.962 59.402 C 168.534 46.993,156.785 39.418,137.481 31.370 C 126.286 26.702,120.620 25.012,113.626 24.254 C 109.405 23.796,109.615 23.799,106.180 24.149 M118.350 30.217 C 129.574 32.840,148.563 41.157,159.304 48.155 C 180.547 61.994,195.086 82.100,195.086 97.640 C 195.086 108.011,189.668 120.873,180.723 131.735 C 179.031 133.790,178.835 135.079,180.031 136.276 C 181.667 137.912,182.213 137.590,187.962 131.605 C 198.197 120.948,202.396 116.847,208.935 111.122 C 215.650 105.242,221.385 100.770,228.146 96.137 C 246.051 83.870,259.969 79.802,272.822 83.079 C 277.820 84.353,278.974 85.427,278.361 88.233 C 277.763 90.974,279.363 92.227,282.278 91.299 C 284.225 90.679,288.904 90.363,291.442 90.680 L 293.149 90.893 291.697 91.911 C 273.098 104.944,268.833 111.358,263.297 134.624 C 255.887 165.761,247.098 181.788,229.635 196.008 C 207.042 214.406,185.020 224.050,168.381 222.833 C 160.571 222.262,158.423 223.317,149.531 232.094 C 140.067 241.435,133.969 246.028,112.882 259.699 C 110.506 261.239,107.491 263.194,106.180 264.045 C 102.656 266.332,96.308 270.219,94.267 271.340 C 93.284 271.880,91.375 272.954,90.024 273.726 C 86.929 275.498,84.242 276.224,82.350 275.800 C 80.324 275.346,77.342 274.290,76.892 273.868 C 76.323 273.334,79.953 270.966,84.148 269.133 C 88.117 267.400,88.459 267.121,88.459 265.614 C 88.459 261.970,84.630 262.123,74.465 266.174 C 59.348 272.199,52.726 269.726,45.194 255.240 C 43.104 251.221,43.051 251.287,48.579 251.026 C 52.633 250.835,55.013 250.571,64.185 249.294 C 66.314 248.998,71.319 248.310,75.306 247.765 C 83.539 246.641,83.991 246.455,83.991 244.189 C 83.991 242.293,83.172 241.729,80.752 241.957 C 69.505 243.015,49.097 241.993,44.183 240.126 C 38.290 237.887,34.507 232.386,30.531 220.273 C 29.459 217.008,28.688 214.231,28.818 214.101 C 29.080 213.839,37.842 214.537,41.549 215.116 C 45.213 215.688,59.835 215.591,65.453 214.958 C 67.953 214.676,70.204 214.445,70.456 214.445 C 71.315 214.445,72.375 212.952,72.375 211.743 C 72.375 209.710,71.782 209.500,65.467 209.295 C 48.846 208.756,31.393 203.821,28.277 198.780 C 26.739 196.291,26.200 186.259,27.134 177.475 C 27.617 172.935,27.616 172.935,33.601 175.859 C 36.141 177.100,37.215 177.550,42.889 179.749 C 44.445 180.352,47.930 181.722,50.633 182.793 C 53.336 183.863,56.016 184.914,56.590 185.127 C 57.163 185.339,58.369 185.799,59.270 186.148 C 89.665 197.918,109.673 197.788,115.369 185.786 C 118.084 180.066,118.130 174.162,115.567 160.536 C 113.800 151.145,113.701 146.475,114.975 132.688 C 116.714 113.855,114.423 103.110,106.999 95.289 C 104.118 92.253,103.973 91.833,106.106 92.705 C 108.401 93.644,110.231 94.807,114.167 97.823 C 123.481 104.963,124.730 105.546,126.636 103.641 C 127.733 102.544,127.720 102.467,125.624 97.394 C 120.497 84.987,115.645 77.257,105.065 64.641 C 102.155 61.172,102.092 60.949,103.970 60.813 C 107.345 60.567,115.154 62.905,126.278 67.490 C 133.560 70.492,136.568 69.264,136.037 63.507 C 135.704 59.891,133.652 56.701,128.257 51.412 C 124.879 48.101,123.269 46.812,114.181 40.150 C 109.296 36.569,103.408 30.489,104.136 29.779 C 105.019 28.918,113.974 29.194,118.350 30.217 M261.506 88.933 C 257.822 90.531,257.121 94.373,260.136 96.440 C 263.485 98.734,267.706 95.235,266.876 90.852 C 266.443 88.566,264.201 87.765,261.506 88.933 M340.134 135.052 C 346.046 135.620,350.479 136.216,354.877 137.036 C 356.679 137.372,359.293 137.781,360.685 137.945 C 363.979 138.335,366.118 138.854,366.265 139.299 C 366.516 140.058,361.428 141.982,355.324 143.435 C 348.526 145.054,347.034 145.448,344.453 146.305 C 335.446 149.294,330.023 154.439,331.950 158.167 C 332.505 159.240,334.228 160.137,338.192 161.418 C 346.869 164.222,345.054 165.989,327.178 172.143 C 314.186 176.615,309.285 179.546,305.756 184.952 C 303.629 188.211,304.345 189.943,308.164 190.779 C 311.568 191.523,311.631 191.606,309.586 192.634 C 306.039 194.418,302.607 195.663,292.182 198.946 C 286.050 200.877,281.006 202.931,271.482 207.375 C 251.279 216.802,233.756 219.048,218.541 214.159 C 216.943 213.646,215.640 213.132,215.645 213.017 C 215.650 212.901,217.560 211.573,219.889 210.065 C 239.976 197.061,255.625 177.393,262.534 156.469 C 265.822 146.511,287.060 136.608,308.712 134.936 C 311.005 134.759,313.418 134.562,314.073 134.500 C 316.999 134.219,335.558 134.613,340.134 135.052 " stroke="none" fill="#222222" fill-rule="evenodd"></path></g></svg>