<svg id="svg" version="1.1" xmlns="http://www.w3.org/2000/svg" xmlns:xlink="http://www.w3.org/1999/xlink" width="400" height="298" viewBox="0, 0, 400,298"><g id="svgg"><path id="path0" d="M106.180 24.149 C 101.489 24.627,98.575 25.690,97.973 27.143 C 96.876 29.792,101.697 36.376,108.414 41.399 C 123.067 52.360,130.752 59.856,130.752 63.190 C 130.752 64.185,128.784 63.607,121.668 60.522 C 109.902 55.420,99.847 54.371,97.471 57.998 C 96.081 60.119,96.982 63.296,99.984 66.865 C 108.076 76.485,116.517 88.967,118.574 94.358 C 118.896 95.201,118.866 95.184,115.677 92.724 C 109.821 88.207,105.426 86.374,100.453 86.374 C 94.373 86.374,94.926 89.837,102.309 97.990 C 109.903 106.377,111.614 114.498,109.868 133.879 C 108.639 147.524,108.809 153.668,110.701 163.961 C 111.828 170.089,111.941 170.804,112.293 174.005 C 113.044 180.826,111.102 185.622,106.597 188.074 C 100.466 191.411,84.440 189.668,68.206 183.900 C 67.141 183.522,65.063 182.786,63.589 182.264 C 59.237 180.726,42.417 173.997,38.868 172.375 C 31.652 169.077,25.965 167.489,24.592 168.388 C 21.519 170.402,20.779 184.750,23.691 185.857 C 24.067 186.000,24.486 186.296,24.622 186.514 C 25.344 187.672,31.943 191.388,34.305 191.966 C 34.743 192.073,35.175 192.352,35.265 192.585 C 35.440 193.041,34.137 192.881,33.477 192.364 C 33.297 192.223,32.526 192.023,31.764 191.918 C 31.003 191.814,30.380 191.628,30.380 191.504 C 30.380 191.381,29.877 191.186,29.263 191.071 C 28.649 190.956,27.994 190.737,27.808 190.583 C 26.804 189.754,23.654 189.919,22.609 190.855 C 20.243 192.975,22.215 201.288,25.945 204.914 C 27.648 206.571,31.028 208.347,33.112 208.680 C 33.733 208.779,34.168 208.978,34.080 209.121 C 33.857 209.482,31.053 209.450,30.827 209.084 C 30.333 208.286,24.235 208.742,23.263 209.650 C 22.035 210.797,22.052 210.937,24.167 217.371 C 26.262 223.741,26.929 224.630,30.136 225.326 C 30.680 225.444,31.202 225.662,31.297 225.810 C 31.391 225.958,32.837 226.163,34.509 226.265 C 36.181 226.367,37.619 226.564,37.705 226.702 C 37.791 226.841,39.093 226.970,40.598 226.989 C 43.271 227.023,43.297 227.030,41.698 227.287 C 40.797 227.432,39.792 227.675,39.464 227.828 C 39.136 227.981,37.849 228.160,36.604 228.227 C 35.144 228.306,34.088 228.524,33.633 228.843 C 33.245 229.115,32.690 229.337,32.400 229.337 C 32.070 229.337,31.646 229.818,31.269 230.620 C 28.737 236.007,37.563 245.581,45.234 245.766 C 46.319 245.792,46.739 245.860,46.165 245.917 C 40.498 246.480,38.421 247.868,38.421 251.094 C 38.421 254.018,40.897 260.018,42.551 261.101 C 43.413 261.666,49.072 261.848,52.569 261.424 C 53.700 261.286,54.083 261.303,53.611 261.470 C 53.202 261.615,52.465 261.949,51.973 262.212 C 51.482 262.476,50.845 262.693,50.558 262.694 C 50.272 262.695,50.037 262.829,50.037 262.993 C 50.037 263.157,49.863 263.291,49.651 263.291 C 49.113 263.291,47.059 265.449,47.059 266.013 C 47.059 270.637,61.861 276.480,67.036 273.898 C 67.566 273.634,68.364 273.418,68.810 273.418 C 69.257 273.418,69.789 273.217,69.993 272.971 C 70.196 272.725,70.672 272.524,71.050 272.524 C 71.428 272.524,71.948 272.314,72.205 272.056 C 72.463 271.799,72.673 271.702,72.673 271.841 C 72.673 272.165,71.565 273.120,71.188 273.120 C 70.500 273.120,69.930 274.932,70.321 275.875 C 70.695 276.777,70.943 276.920,76.694 279.537 C 82.387 282.127,85.622 282.040,90.841 279.155 C 91.906 278.566,94.654 277.055,96.947 275.797 C 99.241 274.538,102.085 272.918,103.268 272.197 C 104.451 271.476,106.394 270.293,107.586 269.569 C 110.830 267.598,121.343 260.581,126.582 256.890 C 141.515 246.370,146.353 242.480,154.478 234.458 C 157.845 231.134,159.104 230.093,160.725 229.295 L 162.756 228.295 169.762 228.106 C 178.872 227.861,185.799 226.540,192.703 223.729 C 193.112 223.563,194.721 222.925,196.277 222.313 C 197.833 221.701,201.452 220.074,204.319 218.698 L 209.531 216.196 211.467 216.990 C 228.730 224.065,249.794 223.168,268.307 214.567 C 269.509 214.009,270.535 213.552,270.587 213.552 C 270.639 213.552,272.001 212.935,273.614 212.182 C 282.734 207.921,283.854 207.424,287.565 205.985 C 289.367 205.286,292.450 204.204,294.415 203.581 C 308.229 199.199,313.728 196.913,317.736 193.885 C 320.960 191.449,319.671 189.038,314.091 187.069 C 311.256 186.068,311.255 186.053,313.788 184.134 C 317.952 180.980,321.352 179.511,338.794 173.329 C 352.305 168.539,353.665 160.286,341.465 157.116 C 338.062 156.232,337.905 156.154,338.380 155.581 C 339.207 154.586,345.819 151.300,350.410 149.605 C 351.803 149.090,355.490 148.179,357.409 147.876 C 368.431 146.136,375.279 140.834,371.819 136.721 C 366.593 130.510,320.697 126.974,298.138 131.044 C 285.814 133.267,275.388 137.464,267.482 143.383 C 266.064 144.445,266.014 144.868,268.463 135.185 C 273.170 116.572,274.675 113.338,282.032 106.028 C 286.349 101.738,290.100 98.960,300.906 92.049 C 303.766 90.220,304.267 88.879,302.681 87.300 C 301.772 86.397,291.519 85.281,286.344 85.523 L 284.076 85.629 283.581 84.375 C 280.900 77.567,265.128 74.735,251.600 78.632 C 239.295 82.176,222.846 92.067,208.121 104.775 C 204.573 107.838,203.253 109.039,198.734 113.318 C 196.121 115.792,196.092 115.776,197.175 112.472 C 197.649 111.025,198.137 109.219,198.259 108.458 C 198.515 106.864,198.503 106.917,198.749 106.329 C 200.017 103.298,200.343 93.033,199.309 88.747 C 194.411 68.455,172.196 46.708,143.261 33.879 C 128.720 27.432,121.596 25.118,113.626 24.254 C 109.405 23.796,109.615 23.799,106.180 24.149 M264.334 86.672 C 264.435 86.835,264.701 86.969,264.926 86.969 C 265.428 86.969,267.431 88.221,267.448 88.545 C 267.455 88.675,267.745 89.165,268.092 89.634 C 268.810 90.605,268.830 94.704,268.118 94.941 C 267.921 95.007,267.759 95.233,267.759 95.443 C 267.759 96.195,266.493 97.412,264.951 98.141 C 263.368 98.890,260.908 99.154,260.908 98.576 C 260.908 98.407,260.674 98.168,260.387 98.045 C 258.919 97.415,257.930 96.580,257.765 95.830 C 257.666 95.380,257.471 95.011,257.332 95.011 C 254.988 95.011,257.363 88.791,260.187 87.536 C 261.072 87.142,261.797 86.720,261.799 86.597 C 261.803 86.261,264.122 86.329,264.334 86.672 M259.952 89.929 C 258.052 91.871,257.519 92.935,258.228 93.373 C 258.392 93.474,258.526 93.807,258.526 94.112 C 258.526 95.882,262.055 98.063,263.675 97.295 C 265.922 96.229,268.805 91.139,267.163 91.139 C 266.999 91.139,266.865 90.896,266.865 90.599 C 266.865 89.929,265.508 88.603,264.389 88.180 C 262.656 87.525,262.083 87.752,259.952 89.929 " stroke="none" fill="#ffffff" fill-rule="evenodd"></path></g></svg>